<svg width="139" height="139" fill="none" xmlns="http://www.w3.org/2000/svg"><path fill-rule="evenodd" clip-rule="evenodd" d="M65 5.104v21.137a5 5 0 0010 0V5.104a5 5 0 00-10 0zM69.5 102c17.95 0 32.5-14.55 32.5-32.5S87.45 37 69.5 37 37 51.55 37 69.5 51.55 102 69.5 102zM5.104 73h21.137a5 5 0 000-10H5.104a5 5 0 000 10zM134 73h-21.137a5 5 0 010-10H134a5 5 0 010 10zm-69 61v-21.137a5 5 0 0110 0V134a5 5 0 01-10 0zM20.784 27.148l14.945 14.945a5 5 0 007.071-7.07L27.855 20.075a5 5 0 00-7.072 7.072zm91.142 91.142l-14.945-14.945a5 5 0 017.071-7.072l14.945 14.946a5 5 0 010 7.071 5 5 0 01-7.071 0zm-1.073-97.507L95.907 35.73a5 5 0 107.071 7.071l14.946-14.945a5.001 5.001 0 00-7.071-7.072zM19.71 111.927l14.946-14.945a5 5 0 117.07 7.071l-14.945 14.945a5 5 0 11-7.071-7.071z" fill="url(#paint0_linear)"/><defs><linearGradient id="paint0_linear" x1=".104" y1=".104" x2=".104" y2="139" gradientUnits="userSpaceOnUse"><stop stop-color="#FFFCC9"/><stop offset="1" stop-color="#FFF799"/></linearGradient></defs></svg>