<svg width="200" height="208" fill="none" xmlns="http://www.w3.org/2000/svg"><path fill-rule="evenodd" clip-rule="evenodd" d="M126.81 21.59v12.998a3.075 3.075 0 006.15 0V21.59a3.075 3.075 0 00-6.15 0zm2.767 59.59c11.039 0 19.988-8.949 19.988-19.988 0-11.038-8.949-19.987-19.988-19.987-11.038 0-19.987 8.949-19.987 19.988 0 11.038 8.949 19.987 19.987 19.987zM89.974 63.345h12.999a3.075 3.075 0 100-6.15H89.974a3.075 3.075 0 000 6.15zm79.271 0h-12.999a3.075 3.075 0 010-6.15h12.999a3.075 3.075 0 010 6.15zM126.81 100.86V87.861a3.075 3.075 0 016.15 0v12.999a3.075 3.075 0 01-6.15 0zM99.617 35.146l9.192 9.191a3.074 3.074 0 104.348-4.348l-9.191-9.192a3.076 3.076 0 00-4.35 4.349zm56.053 56.053l-9.192-9.192a3.075 3.075 0 114.349-4.349l9.191 9.192a3.075 3.075 0 11-4.348 4.349zm-.661-59.967l-9.191 9.191a3.075 3.075 0 104.348 4.35l9.192-9.193a3.075 3.075 0 10-4.349-4.348zM98.956 87.285l9.192-9.192a3.075 3.075 0 014.349 4.349l-9.192 9.192a3.075 3.075 0 11-4.349-4.35z" fill="url(#paint0_linear)"/><path fill-rule="evenodd" clip-rule="evenodd" d="M47.29 87.039C27.899 89.848 13 106.585 13 126.812 13 149.007 30.94 167 53.068 167h82.58C162.904 167 185 144.838 185 117.5S162.904 68 135.648 68a49.35 49.35 0 00-11.302 1.304C116.874 57.691 103.835 50 89 50c-21.517 0-39.255 16.18-41.71 37.039z" fill="url(#paint1_linear)"/><defs><linearGradient id="paint0_linear" x1="86.899" y1="18.514" x2="86.899" y2="103.935" gradientUnits="userSpaceOnUse"><stop stop-color="#FFFCC9"/><stop offset="1" stop-color="#FFF799"/></linearGradient><linearGradient id="paint1_linear" x1="13" y1="50" x2="13" y2="167" gradientUnits="userSpaceOnUse"><stop stop-color="#A9D9FF"/><stop offset="1" stop-color="#7AC5FF"/></linearGradient></defs></svg>