<svg width="7" height="7" fill="none" xmlns="http://www.w3.org/2000/svg"><path opacity=".398" d="M3.636.959c.42 0 .798.066 1.134.198.342.126.633.309.873.549.24.24.426.534.558.882.132.342.198.726.198 1.152 0 .432-.066.822-.198 1.17a2.555 2.555 0 01-.558.891c-.24.24-.531.426-.873.558a3.211 3.211 0 01-1.134.189c-.426 0-.81-.063-1.152-.189a2.572 2.572 0 01-.882-.558 2.555 2.555 0 01-.558-.891 3.278 3.278 0 01-.198-1.17c0-.426.066-.81.198-1.152.132-.348.318-.642.558-.882.246-.24.54-.423.882-.549A3.178 3.178 0 013.636.959zm0 4.635c.504 0 .879-.156 1.125-.468.252-.318.378-.777.378-1.377s-.126-1.056-.378-1.368c-.246-.312-.621-.468-1.125-.468-.528 0-.915.156-1.161.468-.246.312-.369.768-.369 1.368 0 .6.123 1.059.369 1.377.246.312.633.468 1.161.468z" fill="#fff"/></svg>